<?xml version="1.0" encoding="utf-8"?><!-- Generator: Gravit.io --><svg xmlns="http://www.w3.org/2000/svg" xmlns:xlink="http://www.w3.org/1999/xlink" style="isolation:isolate" viewBox="2.82 24.56 550.896 92.632" width="550.896" height="92.632"><g><path d=" M 401.884 112.632 L 401.884 112.632 L 401.884 112.632 Q 401.884 111.624 401.284 110.988 L 401.284 110.988 L 401.284 110.988 Q 400.684 110.352 399.784 109.86 L 399.784 109.86 L 399.784 109.86 Q 398.884 109.368 397.828 108.936 L 397.828 108.936 L 397.828 108.936 Q 396.772 108.504 395.872 107.892 L 395.872 107.892 L 395.872 107.892 Q 394.972 107.28 394.372 106.38 L 394.372 106.38 L 394.372 106.38 Q 393.772 105.48 393.772 104.088 L 393.772 104.088 L 393.772 104.088 Q 393.772 102.12 395.14 100.968 L 395.14 100.968 L 395.14 100.968 Q 396.508 99.816 399.028 99.816 L 399.028 99.816 L 399.028 99.816 Q 400.492 99.816 401.692 100.032 L 401.692 100.032 L 401.692 100.032 Q 402.892 100.248 403.564 100.584 L 403.564 100.584 L 402.964 102.36 L 402.964 102.36 Q 402.412 102.0875 401.344 101.8397 L 401.344 101.8397 L 401.344 101.8397 Q 400.276 101.592 398.932 101.592 L 398.932 101.592 L 398.932 101.592 Q 397.348 101.592 396.556 102.3 L 396.556 102.3 L 396.556 102.3 Q 395.764 103.008 395.764 103.968 L 395.764 103.968 L 395.764 103.968 Q 395.764 104.904 396.364 105.528 L 396.364 105.528 L 396.364 105.528 Q 396.964 106.152 397.864 106.644 L 397.864 106.644 L 397.864 106.644 Q 398.764 107.136 399.82 107.616 L 399.82 107.616 L 399.82 107.616 Q 400.876 108.096 401.776 108.732 L 401.776 108.732 L 401.776 108.732 Q 402.676 109.368 403.276 110.256 L 403.276 110.256 L 403.276 110.256 Q 403.876 111.144 403.876 112.464 L 403.876 112.464 L 403.876 112.464 Q 403.876 113.544 403.492 114.408 L 403.492 114.408 L 403.492 114.408 Q 403.108 115.272 402.364 115.896 L 402.364 115.896 L 402.364 115.896 Q 401.62 116.52 400.564 116.856 L 400.564 116.856 L 400.564 116.856 Q 399.508 117.192 398.164 117.192 L 398.164 117.192 L 398.164 117.192 Q 396.364 117.192 395.188 116.916 L 395.188 116.916 L 395.188 116.916 Q 394.012 116.64 393.364 116.304 L 393.364 116.304 L 394.036 114.528 L 394.036 114.528 Q 394.588 114.8318 395.668 115.1239 L 395.668 115.1239 L 395.668 115.1239 Q 396.748 115.416 398.092 115.416 L 398.092 115.416 L 398.092 115.416 Q 398.884 115.416 399.58 115.26 L 399.58 115.26 L 399.58 115.26 Q 400.276 115.104 400.78 114.756 L 400.78 114.756 L 400.78 114.756 Q 401.284 114.408 401.584 113.88 L 401.584 113.88 L 401.584 113.88 Q 401.884 113.352 401.884 112.632 Z  M 417.18 110.904 L 417.18 110.904 L 417.18 110.904 Q 417.18 107.856 418.536 106.236 L 418.536 106.236 L 418.536 106.236 Q 419.892 104.616 422.436 104.616 L 422.436 104.616 L 422.436 104.616 Q 423.78 104.616 424.776 105.06 L 424.776 105.06 L 424.776 105.06 Q 425.772 105.504 426.42 106.332 L 426.42 106.332 L 426.42 106.332 Q 427.068 107.16 427.38 108.324 L 427.38 108.324 L 427.38 108.324 Q 427.692 109.488 427.692 110.904 L 427.692 110.904 L 427.692 110.904 Q 427.692 113.952 426.336 115.572 L 426.336 115.572 L 426.336 115.572 Q 424.98 117.192 422.436 117.192 L 422.436 117.192 L 422.436 117.192 Q 421.092 117.192 420.096 116.748 L 420.096 116.748 L 420.096 116.748 Q 419.1 116.304 418.452 115.476 L 418.452 115.476 L 418.452 115.476 Q 417.804 114.648 417.492 113.484 L 417.492 113.484 L 417.492 113.484 Q 417.18 112.32 417.18 110.904 Z  M 419.172 110.904 L 419.172 110.904 L 419.172 110.904 Q 419.172 111.816 419.352 112.656 L 419.352 112.656 L 419.352 112.656 Q 419.532 113.496 419.916 114.12 L 419.916 114.12 L 419.916 114.12 Q 420.3 114.744 420.924 115.128 L 420.924 115.128 L 420.924 115.128 Q 421.548 115.512 422.436 115.512 L 422.436 115.512 L 422.436 115.512 Q 425.7 115.536 425.7 110.904 L 425.7 110.904 L 425.7 110.904 Q 425.7 109.968 425.52 109.128 L 425.52 109.128 L 425.52 109.128 Q 425.34 108.288 424.956 107.664 L 424.956 107.664 L 424.956 107.664 Q 424.572 107.04 423.948 106.668 L 423.948 106.668 L 423.948 106.668 Q 423.324 106.296 422.436 106.296 L 422.436 106.296 L 422.436 106.296 Q 419.172 106.272 419.172 110.904 Z  M 443.852 100.104 L 443.852 113.952 L 443.852 113.952 Q 443.852 114.792 444.14 115.152 L 444.14 115.152 L 444.14 115.152 Q 444.428 115.512 444.956 115.512 L 444.956 115.512 L 444.956 115.512 Q 445.268 115.512 445.628 115.464 L 445.628 115.464 L 445.628 115.464 Q 445.988 115.416 446.444 115.248 L 446.444 115.248 L 446.66 116.76 L 446.66 116.76 Q 446.276 116.952 445.592 117.072 L 445.592 117.072 L 445.592 117.072 Q 444.908 117.192 444.404 117.192 L 444.404 117.192 L 444.404 117.192 Q 443.324 117.192 442.628 116.58 L 442.628 116.58 L 442.628 116.58 Q 441.932 115.968 441.932 114.504 L 441.932 114.504 L 441.932 100.104 L 443.852 100.104 L 443.852 100.104 Z  M 459.532 104.904 L 461.452 104.904 L 461.452 111.744 L 461.452 111.744 Q 461.452 112.68 461.56 113.388 L 461.56 113.388 L 461.56 113.388 Q 461.668 114.096 461.932 114.564 L 461.932 114.564 L 461.932 114.564 Q 462.196 115.032 462.652 115.272 L 462.652 115.272 L 462.652 115.272 Q 463.108 115.512 463.804 115.512 L 463.804 115.512 L 463.804 115.512 Q 464.452 115.512 464.956 115.308 L 464.956 115.308 L 464.956 115.308 Q 465.46 115.104 465.856 114.744 L 465.856 114.744 L 465.856 114.744 Q 466.252 114.384 466.552 113.916 L 466.552 113.916 L 466.552 113.916 Q 466.852 113.448 467.044 112.92 L 467.044 112.92 L 467.044 104.904 L 468.964 104.904 L 468.964 113.496 L 468.964 113.496 Q 468.964 114.36 469.024 115.284 L 469.024 115.284 L 469.024 115.284 Q 469.084 116.208 469.228 116.904 L 469.228 116.904 L 467.908 116.904 L 467.428 115.008 L 467.308 115.008 L 467.308 115.008 Q 466.756 115.944 465.82 116.568 L 465.82 116.568 L 465.82 116.568 Q 464.884 117.192 463.444 117.192 L 463.444 117.192 L 463.444 117.192 Q 462.484 117.192 461.752 116.964 L 461.752 116.964 L 461.752 116.964 Q 461.02 116.736 460.528 116.16 L 460.528 116.16 L 460.528 116.16 Q 460.036 115.584 459.784 114.612 L 459.784 114.612 L 459.784 114.612 Q 459.532 113.64 459.532 112.152 L 459.532 112.152 L 459.532 104.904 L 459.532 104.904 Z  M 482.076 106.584 L 482.076 104.904 L 483.948 104.904 L 483.948 102.528 L 485.868 101.976 L 485.868 104.904 L 489.132 104.904 L 489.132 106.584 L 485.868 106.584 L 485.868 113.232 L 485.868 113.232 Q 485.868 114.48 486.18 114.996 L 486.18 114.996 L 486.18 114.996 Q 486.492 115.512 487.236 115.512 L 487.236 115.512 L 487.236 115.512 Q 487.86 115.512 488.292 115.38 L 488.292 115.38 L 488.292 115.38 Q 488.724 115.248 489.252 115.032 L 489.252 115.032 L 489.684 116.496 L 489.684 116.496 Q 489.036 116.808 488.268 117 L 488.268 117 L 488.268 117 Q 487.5 117.192 486.612 117.192 L 486.612 117.192 L 486.612 117.192 Q 485.148 117.192 484.548 116.364 L 484.548 116.364 L 484.548 116.364 Q 483.948 115.536 483.948 113.592 L 483.948 113.592 L 483.948 106.584 L 482.076 106.584 L 482.076 106.584 Z  M 503.204 116.904 L 503.204 104.904 L 505.124 104.904 L 505.124 116.904 L 503.204 116.904 L 503.204 116.904 Z  M 502.796 101.256 L 502.796 101.256 L 502.796 101.256 Q 502.796 100.704 503.168 100.308 L 503.168 100.308 L 503.168 100.308 Q 503.54 99.912 504.116 99.912 L 504.116 99.912 L 504.116 99.912 Q 504.692 99.912 505.1 100.308 L 505.1 100.308 L 505.1 100.308 Q 505.508 100.704 505.508 101.256 L 505.508 101.256 L 505.508 101.256 Q 505.508 101.808 505.1 102.168 L 505.1 102.168 L 505.1 102.168 Q 504.692 102.528 504.116 102.528 L 504.116 102.528 L 504.116 102.528 Q 503.54 102.528 503.168 102.168 L 503.168 102.168 L 503.168 102.168 Q 502.796 101.808 502.796 101.256 Z  M 519.556 110.904 L 519.556 110.904 L 519.556 110.904 Q 519.556 107.856 520.912 106.236 L 520.912 106.236 L 520.912 106.236 Q 522.268 104.616 524.812 104.616 L 524.812 104.616 L 524.812 104.616 Q 526.156 104.616 527.152 105.06 L 527.152 105.06 L 527.152 105.06 Q 528.148 105.504 528.796 106.332 L 528.796 106.332 L 528.796 106.332 Q 529.444 107.16 529.756 108.324 L 529.756 108.324 L 529.756 108.324 Q 530.068 109.488 530.068 110.904 L 530.068 110.904 L 530.068 110.904 Q 530.068 113.952 528.712 115.572 L 528.712 115.572 L 528.712 115.572 Q 527.356 117.192 524.812 117.192 L 524.812 117.192 L 524.812 117.192 Q 523.468 117.192 522.472 116.748 L 522.472 116.748 L 522.472 116.748 Q 521.476 116.304 520.828 115.476 L 520.828 115.476 L 520.828 115.476 Q 520.18 114.648 519.868 113.484 L 519.868 113.484 L 519.868 113.484 Q 519.556 112.32 519.556 110.904 Z  M 521.548 110.904 L 521.548 110.904 L 521.548 110.904 Q 521.548 111.816 521.728 112.656 L 521.728 112.656 L 521.728 112.656 Q 521.908 113.496 522.292 114.12 L 522.292 114.12 L 522.292 114.12 Q 522.676 114.744 523.3 115.128 L 523.3 115.128 L 523.3 115.128 Q 523.924 115.512 524.812 115.512 L 524.812 115.512 L 524.812 115.512 Q 528.076 115.536 528.076 110.904 L 528.076 110.904 L 528.076 110.904 Q 528.076 109.968 527.896 109.128 L 527.896 109.128 L 527.896 109.128 Q 527.716 108.288 527.332 107.664 L 527.332 107.664 L 527.332 107.664 Q 526.948 107.04 526.324 106.668 L 526.324 106.668 L 526.324 106.668 Q 525.7 106.296 524.812 106.296 L 524.812 106.296 L 524.812 106.296 Q 521.548 106.272 521.548 110.904 Z  M 553.716 116.904 L 551.796 116.904 L 551.796 110.064 L 551.796 110.064 Q 551.796 108.192 551.256 107.244 L 551.256 107.244 L 551.256 107.244 Q 550.716 106.296 549.276 106.296 L 549.276 106.296 L 549.276 106.296 Q 548.004 106.296 547.176 106.98 L 547.176 106.98 L 547.176 106.98 Q 546.348 107.664 546.012 108.696 L 546.012 108.696 L 546.012 116.904 L 544.092 116.904 L 544.092 104.904 L 545.436 104.904 L 545.796 106.368 L 545.892 106.368 L 545.892 106.368 Q 546.468 105.6 547.44 105.108 L 547.44 105.108 L 547.44 105.108 Q 548.412 104.616 549.756 104.616 L 549.756 104.616 L 549.756 104.616 Q 550.74 104.616 551.484 104.844 L 551.484 104.844 L 551.484 104.844 Q 552.228 105.072 552.72 105.648 L 552.72 105.648 L 552.72 105.648 Q 553.212 106.224 553.464 107.196 L 553.464 107.196 L 553.464 107.196 Q 553.716 108.168 553.716 109.656 L 553.716 109.656 L 553.716 116.904 L 553.716 116.904 Z  M 244.58 116.904 L 242.852 112.248 L 236.66 112.248 L 234.98 116.904 L 233.012 116.904 L 239.372 99.84 L 240.284 99.84 L 246.668 116.904 L 244.58 116.904 L 244.58 116.904 Z  M 239.156 105.456 L 237.308 110.52 L 242.252 110.52 L 240.38 105.408 L 239.78 102.864 L 239.756 102.864 L 239.156 105.456 L 239.156 105.456 Z  M 265.78 104.904 L 265.372 106.752 L 265.372 106.752 Q 264.652 106.512 264.004 106.512 L 264.004 106.512 L 264.004 106.512 Q 262.972 106.512 262.372 107.076 L 262.372 107.076 L 262.372 107.076 Q 261.772 107.64 261.628 108.504 L 261.628 108.504 L 261.628 116.904 L 259.708 116.904 L 259.708 104.904 L 261.052 104.904 L 261.412 106.368 L 261.508 106.368 L 261.508 106.368 Q 261.964 105.552 262.6 105.108 L 262.6 105.108 L 262.6 105.108 Q 263.236 104.664 264.22 104.664 L 264.22 104.664 L 264.22 104.664 Q 264.916 104.664 265.78 104.904 L 265.78 104.904 L 265.78 104.904 Z  M 286.428 114.648 L 287.052 116.112 L 287.052 116.112 Q 286.332 116.64 285.348 116.916 L 285.348 116.916 L 285.348 116.916 Q 284.364 117.192 283.284 117.192 L 283.284 117.192 L 283.284 117.192 Q 281.892 117.192 280.932 116.748 L 280.932 116.748 L 280.932 116.748 Q 279.972 116.304 279.36 115.476 L 279.36 115.476 L 279.36 115.476 Q 278.748 114.648 278.472 113.484 L 278.472 113.484 L 278.472 113.484 Q 278.196 112.32 278.196 110.904 L 278.196 110.904 L 278.196 110.904 Q 278.196 107.856 279.54 106.236 L 279.54 106.236 L 279.54 106.236 Q 280.884 104.616 283.404 104.616 L 283.404 104.616 L 283.404 104.616 Q 284.556 104.616 285.36 104.796 L 285.36 104.796 L 285.36 104.796 Q 286.164 104.976 286.812 105.312 L 286.812 105.312 L 286.26 106.968 L 286.26 106.968 Q 285.708 106.656 285.036 106.476 L 285.036 106.476 L 285.036 106.476 Q 284.364 106.296 283.596 106.296 L 283.596 106.296 L 283.596 106.296 Q 280.188 106.296 280.188 110.904 L 280.188 110.904 L 280.188 110.904 Q 280.188 111.816 280.368 112.644 L 280.368 112.644 L 280.368 112.644 Q 280.548 113.472 280.968 114.108 L 280.968 114.108 L 280.968 114.108 Q 281.388 114.744 282.072 115.128 L 282.072 115.128 L 282.072 115.128 Q 282.756 115.512 283.764 115.512 L 283.764 115.512 L 283.764 115.512 Q 284.628 115.512 285.312 115.248 L 285.312 115.248 L 285.312 115.248 Q 285.996 114.984 286.428 114.648 L 286.428 114.648 L 286.428 114.648 Z  M 301.1 107.256 L 300.5 105.792 L 300.5 105.792 Q 301.412 105.24 302.624 104.976 L 302.624 104.976 L 302.624 104.976 Q 303.836 104.712 305.156 104.712 L 305.156 104.712 L 305.156 104.712 Q 306.404 104.712 307.16 105.048 L 307.16 105.048 L 307.16 105.048 Q 307.916 105.384 308.312 105.924 L 308.312 105.924 L 308.312 105.924 Q 308.708 106.464 308.84 107.112 L 308.84 107.112 L 308.84 107.112 Q 308.972 107.76 308.972 108.408 L 308.972 108.408 L 308.972 108.408 Q 308.972 109.848 308.9 111.216 L 308.9 111.216 L 308.9 111.216 Q 308.828 112.584 308.828 113.808 L 308.828 113.808 L 308.828 113.808 Q 308.828 114.696 308.9 115.488 L 308.9 115.488 L 308.9 115.488 Q 308.972 116.28 309.164 116.952 L 309.164 116.952 L 307.748 116.952 L 307.244 115.272 L 307.124 115.272 L 307.124 115.272 Q 306.908 115.608 306.584 115.932 L 306.584 115.932 L 306.584 115.932 Q 306.26 116.256 305.804 116.508 L 305.804 116.508 L 305.804 116.508 Q 305.348 116.76 304.748 116.928 L 304.748 116.928 L 304.748 116.928 Q 304.148 117.096 303.38 117.096 L 303.38 117.096 L 303.38 117.096 Q 302.612 117.096 301.952 116.856 L 301.952 116.856 L 301.952 116.856 Q 301.292 116.616 300.812 116.172 L 300.812 116.172 L 300.812 116.172 Q 300.332 115.728 300.056 115.104 L 300.056 115.104 L 300.056 115.104 Q 299.78 114.48 299.78 113.688 L 299.78 113.688 L 299.78 113.688 Q 299.78 112.632 300.212 111.924 L 300.212 111.924 L 300.212 111.924 Q 300.644 111.216 301.424 110.796 L 301.424 110.796 L 301.424 110.796 Q 302.204 110.376 303.296 110.196 L 303.296 110.196 L 303.296 110.196 Q 304.388 110.016 305.708 110.016 L 305.708 110.016 L 305.708 110.016 Q 306.044 110.016 306.368 110.016 L 306.368 110.016 L 306.368 110.016 Q 306.692 110.016 307.028 110.064 L 307.028 110.064 L 307.028 110.064 Q 307.1 109.344 307.1 108.768 L 307.1 108.768 L 307.1 108.768 Q 307.1 107.448 306.572 106.92 L 306.572 106.92 L 306.572 106.92 Q 306.044 106.392 304.652 106.392 L 304.652 106.392 L 304.652 106.392 Q 304.244 106.392 303.776 106.4537 L 303.776 106.4537 L 303.776 106.4537 Q 303.308 106.5154 302.816 106.6265 L 302.816 106.6265 L 302.816 106.6265 Q 302.324 106.7376 301.88 106.8981 L 301.88 106.8981 L 301.88 106.8981 Q 301.436 107.0585 301.1 107.256 L 301.1 107.256 L 301.1 107.256 Z  M 303.908 115.416 L 303.908 115.416 L 303.908 115.416 Q 304.58 115.416 305.108 115.236 L 305.108 115.236 L 305.108 115.236 Q 305.636 115.056 306.02 114.78 L 306.02 114.78 L 306.02 114.78 Q 306.404 114.504 306.656 114.168 L 306.656 114.168 L 306.656 114.168 Q 306.908 113.832 307.028 113.52 L 307.028 113.52 L 307.028 111.528 L 307.028 111.528 Q 306.692 111.504 306.344 111.492 L 306.344 111.492 L 306.344 111.492 Q 305.996 111.48 305.66 111.48 L 305.66 111.48 L 305.66 111.48 Q 304.916 111.48 304.208 111.564 L 304.208 111.564 L 304.208 111.564 Q 303.5 111.648 302.96 111.876 L 302.96 111.876 L 302.96 111.876 Q 302.42 112.104 302.096 112.5 L 302.096 112.5 L 302.096 112.5 Q 301.772 112.896 301.772 113.496 L 301.772 113.496 L 301.772 113.496 Q 301.772 114.336 302.372 114.876 L 302.372 114.876 L 302.372 114.876 Q 302.972 115.416 303.908 115.416 Z  M 332.812 100.104 L 332.812 112.776 L 332.812 112.776 Q 332.812 114 332.836 114.996 L 332.836 114.996 L 332.836 114.996 Q 332.86 115.992 333.052 116.952 L 333.052 116.952 L 331.756 116.952 L 331.276 115.248 L 331.18 115.248 L 331.18 115.248 Q 330.7 116.088 329.788 116.64 L 329.788 116.64 L 329.788 116.64 Q 328.876 117.192 327.652 117.192 L 327.652 117.192 L 327.652 117.192 Q 325.252 117.192 324.088 115.68 L 324.088 115.68 L 324.088 115.68 Q 322.924 114.168 322.924 110.952 L 322.924 110.952 L 322.924 110.952 Q 322.924 107.88 324.376 106.284 L 324.376 106.284 L 324.376 106.284 Q 325.828 104.688 328.372 104.688 L 328.372 104.688 L 328.372 104.688 Q 329.26 104.688 329.776 104.784 L 329.776 104.784 L 329.776 104.784 Q 330.292 104.88 330.892 105.096 L 330.892 105.096 L 330.892 100.104 L 332.812 100.104 L 332.812 100.104 Z  M 327.964 115.512 L 327.964 115.512 L 327.964 115.512 Q 329.188 115.512 329.908 114.876 L 329.908 114.876 L 329.908 114.876 Q 330.628 114.24 330.892 112.944 L 330.892 112.944 L 330.892 106.992 L 330.892 106.992 Q 330.46 106.656 329.908 106.512 L 329.908 106.512 L 329.908 106.512 Q 329.356 106.368 328.444 106.368 L 328.444 106.368 L 328.444 106.368 Q 326.788 106.368 325.852 107.46 L 325.852 107.46 L 325.852 107.46 Q 324.916 108.552 324.916 110.952 L 324.916 110.952 L 324.916 110.952 Q 324.916 111.936 325.072 112.776 L 325.072 112.776 L 325.072 112.776 Q 325.228 113.616 325.588 114.216 L 325.588 114.216 L 325.588 114.216 Q 325.948 114.816 326.536 115.164 L 326.536 115.164 L 326.536 115.164 Q 327.124 115.512 327.964 115.512 Z  M 355.548 114.552 L 356.268 115.944 L 356.268 115.944 Q 355.548 116.52 354.456 116.856 L 354.456 116.856 L 354.456 116.856 Q 353.364 117.192 352.14 117.192 L 352.14 117.192 L 352.14 117.192 Q 350.772 117.192 349.764 116.748 L 349.764 116.748 L 349.764 116.748 Q 348.756 116.304 348.108 115.476 L 348.108 115.476 L 348.108 115.476 Q 347.46 114.648 347.148 113.496 L 347.148 113.496 L 347.148 113.496 Q 346.836 112.344 346.836 110.904 L 346.836 110.904 L 346.836 110.904 Q 346.836 107.832 348.204 106.224 L 348.204 106.224 L 348.204 106.224 Q 349.572 104.616 352.116 104.616 L 352.116 104.616 L 352.116 104.616 Q 352.932 104.616 353.748 104.796 L 353.748 104.796 L 353.748 104.796 Q 354.564 104.976 355.212 105.48 L 355.212 105.48 L 355.212 105.48 Q 355.86 105.984 356.268 106.908 L 356.268 106.908 L 356.268 106.908 Q 356.676 107.832 356.676 109.344 L 356.676 109.344 L 356.676 109.344 Q 356.676 110.136 356.532 111.096 L 356.532 111.096 L 348.828 111.096 L 348.828 111.096 Q 348.828 112.152 349.044 112.968 L 349.044 112.968 L 349.044 112.968 Q 349.26 113.784 349.716 114.348 L 349.716 114.348 L 349.716 114.348 Q 350.172 114.912 350.904 115.212 L 350.904 115.212 L 350.904 115.212 Q 351.636 115.512 352.692 115.512 L 352.692 115.512 L 352.692 115.512 Q 353.508 115.512 354.324 115.224 L 354.324 115.224 L 354.324 115.224 Q 355.14 114.936 355.548 114.552 L 355.548 114.552 L 355.548 114.552 Z  M 352.14 106.296 L 352.14 106.296 L 352.14 106.296 Q 350.724 106.296 349.872 107.04 L 349.872 107.04 L 349.872 107.04 Q 349.02 107.784 348.852 109.584 L 348.852 109.584 L 354.804 109.584 L 354.804 109.584 Q 354.804 107.76 354.108 107.028 L 354.108 107.028 L 354.108 107.028 Q 353.412 106.296 352.14 106.296 Z  M 4.932 100.104 L 7.956 111.36 L 8.34 114.144 L 8.364 114.144 L 8.772 111.312 L 12.228 100.104 L 13.188 100.104 L 16.668 111.36 L 17.076 114.144 L 17.1 114.144 L 17.532 111.312 L 20.364 100.104 L 22.308 100.104 L 17.628 117.168 L 16.524 117.168 L 13.116 105.912 L 12.684 103.368 L 12.564 103.368 L 12.132 105.936 L 8.724 117.168 L 7.62 117.168 L 2.82 100.104 L 4.932 100.104 L 4.932 100.104 Z  M 34.676 110.904 L 34.676 110.904 L 34.676 110.904 Q 34.676 107.856 36.032 106.236 L 36.032 106.236 L 36.032 106.236 Q 37.388 104.616 39.932 104.616 L 39.932 104.616 L 39.932 104.616 Q 41.276 104.616 42.272 105.06 L 42.272 105.06 L 42.272 105.06 Q 43.268 105.504 43.916 106.332 L 43.916 106.332 L 43.916 106.332 Q 44.564 107.16 44.876 108.324 L 44.876 108.324 L 44.876 108.324 Q 45.188 109.488 45.188 110.904 L 45.188 110.904 L 45.188 110.904 Q 45.188 113.952 43.832 115.572 L 43.832 115.572 L 43.832 115.572 Q 42.476 117.192 39.932 117.192 L 39.932 117.192 L 39.932 117.192 Q 38.588 117.192 37.592 116.748 L 37.592 116.748 L 37.592 116.748 Q 36.596 116.304 35.948 115.476 L 35.948 115.476 L 35.948 115.476 Q 35.3 114.648 34.988 113.484 L 34.988 113.484 L 34.988 113.484 Q 34.676 112.32 34.676 110.904 Z  M 36.668 110.904 L 36.668 110.904 L 36.668 110.904 Q 36.668 111.816 36.848 112.656 L 36.848 112.656 L 36.848 112.656 Q 37.028 113.496 37.412 114.12 L 37.412 114.12 L 37.412 114.12 Q 37.796 114.744 38.42 115.128 L 38.42 115.128 L 38.42 115.128 Q 39.044 115.512 39.932 115.512 L 39.932 115.512 L 39.932 115.512 Q 43.196 115.536 43.196 110.904 L 43.196 110.904 L 43.196 110.904 Q 43.196 109.968 43.016 109.128 L 43.016 109.128 L 43.016 109.128 Q 42.836 108.288 42.452 107.664 L 42.452 107.664 L 42.452 107.664 Q 42.068 107.04 41.444 106.668 L 41.444 106.668 L 41.444 106.668 Q 40.82 106.296 39.932 106.296 L 39.932 106.296 L 39.932 106.296 Q 36.668 106.272 36.668 110.904 Z  M 65.284 104.904 L 64.876 106.752 L 64.876 106.752 Q 64.156 106.512 63.508 106.512 L 63.508 106.512 L 63.508 106.512 Q 62.476 106.512 61.876 107.076 L 61.876 107.076 L 61.876 107.076 Q 61.276 107.64 61.132 108.504 L 61.132 108.504 L 61.132 116.904 L 59.212 116.904 L 59.212 104.904 L 60.556 104.904 L 60.916 106.368 L 61.012 106.368 L 61.012 106.368 Q 61.468 105.552 62.104 105.108 L 62.104 105.108 L 62.104 105.108 Q 62.74 104.664 63.724 104.664 L 63.724 104.664 L 63.724 104.664 Q 64.42 104.664 65.284 104.904 L 65.284 104.904 L 65.284 104.904 Z  M 87.588 100.104 L 87.588 112.776 L 87.588 112.776 Q 87.588 114 87.612 114.996 L 87.612 114.996 L 87.612 114.996 Q 87.636 115.992 87.828 116.952 L 87.828 116.952 L 86.532 116.952 L 86.052 115.248 L 85.956 115.248 L 85.956 115.248 Q 85.476 116.088 84.564 116.64 L 84.564 116.64 L 84.564 116.64 Q 83.652 117.192 82.428 117.192 L 82.428 117.192 L 82.428 117.192 Q 80.028 117.192 78.864 115.68 L 78.864 115.68 L 78.864 115.68 Q 77.7 114.168 77.7 110.952 L 77.7 110.952 L 77.7 110.952 Q 77.7 107.88 79.152 106.284 L 79.152 106.284 L 79.152 106.284 Q 80.604 104.688 83.148 104.688 L 83.148 104.688 L 83.148 104.688 Q 84.036 104.688 84.552 104.784 L 84.552 104.784 L 84.552 104.784 Q 85.068 104.88 85.668 105.096 L 85.668 105.096 L 85.668 100.104 L 87.588 100.104 L 87.588 100.104 Z  M 82.74 115.512 L 82.74 115.512 L 82.74 115.512 Q 83.964 115.512 84.684 114.876 L 84.684 114.876 L 84.684 114.876 Q 85.404 114.24 85.668 112.944 L 85.668 112.944 L 85.668 106.992 L 85.668 106.992 Q 85.236 106.656 84.684 106.512 L 84.684 106.512 L 84.684 106.512 Q 84.132 106.368 83.22 106.368 L 83.22 106.368 L 83.22 106.368 Q 81.564 106.368 80.628 107.46 L 80.628 107.46 L 80.628 107.46 Q 79.692 108.552 79.692 110.952 L 79.692 110.952 L 79.692 110.952 Q 79.692 111.936 79.848 112.776 L 79.848 112.776 L 79.848 112.776 Q 80.004 113.616 80.364 114.216 L 80.364 114.216 L 80.364 114.216 Q 80.724 114.816 81.312 115.164 L 81.312 115.164 L 81.312 115.164 Q 81.9 115.512 82.74 115.512 Z  M 102.476 116.904 L 102.476 100.272 L 102.476 100.272 Q 103.388 100.056 104.444 99.984 L 104.444 99.984 L 104.444 99.984 Q 105.5 99.912 106.532 99.912 L 106.532 99.912 L 106.532 99.912 Q 107.636 99.912 108.776 100.128 L 108.776 100.128 L 108.776 100.128 Q 109.916 100.344 110.852 100.92 L 110.852 100.92 L 110.852 100.92 Q 111.788 101.496 112.376 102.504 L 112.376 102.504 L 112.376 102.504 Q 112.964 103.512 112.964 105.072 L 112.964 105.072 L 112.964 105.072 Q 112.964 106.608 112.412 107.664 L 112.412 107.664 L 112.412 107.664 Q 111.86 108.72 110.948 109.38 L 110.948 109.38 L 110.948 109.38 Q 110.036 110.04 108.86 110.328 L 108.86 110.328 L 108.86 110.328 Q 107.684 110.616 106.436 110.616 L 106.436 110.616 L 106.436 110.616 Q 106.316 110.616 106.04 110.616 L 106.04 110.616 L 106.04 110.616 Q 105.764 110.616 105.464 110.604 L 105.464 110.604 L 105.464 110.604 Q 105.164 110.592 104.876 110.568 L 104.876 110.568 L 104.876 110.568 Q 104.588 110.544 104.468 110.52 L 104.468 110.52 L 104.468 116.904 L 102.476 116.904 L 102.476 116.904 Z  M 106.58 101.64 L 106.58 101.64 L 106.58 101.64 Q 105.956 101.64 105.38 101.664 L 105.38 101.664 L 105.38 101.664 Q 104.804 101.688 104.468 101.784 L 104.468 101.784 L 104.468 108.744 L 104.468 108.744 Q 104.588 108.792 104.852 108.804 L 104.852 108.804 L 104.852 108.804 Q 105.116 108.816 105.404 108.828 L 105.404 108.828 L 105.404 108.828 Q 105.692 108.84 105.956 108.84 L 105.956 108.84 L 105.956 108.84 Q 106.22 108.84 106.34 108.84 L 106.34 108.84 L 106.34 108.84 Q 107.156 108.84 107.96 108.684 L 107.96 108.684 L 107.96 108.684 Q 108.764 108.528 109.412 108.12 L 109.412 108.12 L 109.412 108.12 Q 110.06 107.712 110.456 106.968 L 110.456 106.968 L 110.456 106.968 Q 110.852 106.224 110.852 105.072 L 110.852 105.072 L 110.852 105.072 Q 110.852 104.088 110.48 103.428 L 110.48 103.428 L 110.48 103.428 Q 110.108 102.768 109.496 102.372 L 109.496 102.372 L 109.496 102.372 Q 108.884 101.976 108.116 101.808 L 108.116 101.808 L 108.116 101.808 Q 107.348 101.64 106.58 101.64 Z  M 132.772 104.904 L 132.364 106.752 L 132.364 106.752 Q 131.644 106.512 130.996 106.512 L 130.996 106.512 L 130.996 106.512 Q 129.964 106.512 129.364 107.076 L 129.364 107.076 L 129.364 107.076 Q 128.764 107.64 128.62 108.504 L 128.62 108.504 L 128.62 116.904 L 126.7 116.904 L 126.7 104.904 L 128.044 104.904 L 128.404 106.368 L 128.5 106.368 L 128.5 106.368 Q 128.956 105.552 129.592 105.108 L 129.592 105.108 L 129.592 105.108 Q 130.228 104.664 131.212 104.664 L 131.212 104.664 L 131.212 104.664 Q 131.908 104.664 132.772 104.904 L 132.772 104.904 L 132.772 104.904 Z  M 153.9 114.552 L 154.62 115.944 L 154.62 115.944 Q 153.9 116.52 152.808 116.856 L 152.808 116.856 L 152.808 116.856 Q 151.716 117.192 150.492 117.192 L 150.492 117.192 L 150.492 117.192 Q 149.124 117.192 148.116 116.748 L 148.116 116.748 L 148.116 116.748 Q 147.108 116.304 146.46 115.476 L 146.46 115.476 L 146.46 115.476 Q 145.812 114.648 145.5 113.496 L 145.5 113.496 L 145.5 113.496 Q 145.188 112.344 145.188 110.904 L 145.188 110.904 L 145.188 110.904 Q 145.188 107.832 146.556 106.224 L 146.556 106.224 L 146.556 106.224 Q 147.924 104.616 150.468 104.616 L 150.468 104.616 L 150.468 104.616 Q 151.284 104.616 152.1 104.796 L 152.1 104.796 L 152.1 104.796 Q 152.916 104.976 153.564 105.48 L 153.564 105.48 L 153.564 105.48 Q 154.212 105.984 154.62 106.908 L 154.62 106.908 L 154.62 106.908 Q 155.028 107.832 155.028 109.344 L 155.028 109.344 L 155.028 109.344 Q 155.028 110.136 154.884 111.096 L 154.884 111.096 L 147.18 111.096 L 147.18 111.096 Q 147.18 112.152 147.396 112.968 L 147.396 112.968 L 147.396 112.968 Q 147.612 113.784 148.068 114.348 L 148.068 114.348 L 148.068 114.348 Q 148.524 114.912 149.256 115.212 L 149.256 115.212 L 149.256 115.212 Q 149.988 115.512 151.044 115.512 L 151.044 115.512 L 151.044 115.512 Q 151.86 115.512 152.676 115.224 L 152.676 115.224 L 152.676 115.224 Q 153.492 114.936 153.9 114.552 L 153.9 114.552 L 153.9 114.552 Z  M 150.492 106.296 L 150.492 106.296 L 150.492 106.296 Q 149.076 106.296 148.224 107.04 L 148.224 107.04 L 148.224 107.04 Q 147.372 107.784 147.204 109.584 L 147.204 109.584 L 153.156 109.584 L 153.156 109.584 Q 153.156 107.76 152.46 107.028 L 152.46 107.028 L 152.46 107.028 Q 151.764 106.296 150.492 106.296 Z  M 174.332 113.64 L 174.332 113.64 L 174.332 113.64 Q 174.332 112.92 173.9 112.512 L 173.9 112.512 L 173.9 112.512 Q 173.468 112.104 172.832 111.828 L 172.832 111.828 L 172.832 111.828 Q 172.196 111.552 171.44 111.3 L 171.44 111.3 L 171.44 111.3 Q 170.684 111.048 170.048 110.652 L 170.048 110.652 L 170.048 110.652 Q 169.412 110.256 168.98 109.632 L 168.98 109.632 L 168.98 109.632 Q 168.548 109.008 168.548 107.952 L 168.548 107.952 L 168.548 107.952 Q 168.548 106.224 169.532 105.42 L 169.532 105.42 L 169.532 105.42 Q 170.516 104.616 172.268 104.616 L 172.268 104.616 L 172.268 104.616 Q 173.564 104.616 174.44 104.844 L 174.44 104.844 L 174.44 104.844 Q 175.316 105.072 175.964 105.384 L 175.964 105.384 L 175.508 106.968 L 175.508 106.968 Q 174.956 106.704 174.176 106.5 L 174.176 106.5 L 174.176 106.5 Q 173.396 106.296 172.508 106.296 L 172.508 106.296 L 172.508 106.296 Q 171.452 106.296 170.96 106.656 L 170.96 106.656 L 170.96 106.656 Q 170.468 107.016 170.468 107.904 L 170.468 107.904 L 170.468 107.904 Q 170.468 108.528 170.9 108.876 L 170.9 108.876 L 170.9 108.876 Q 171.332 109.224 171.968 109.5 L 171.968 109.5 L 171.968 109.5 Q 172.604 109.776 173.36 110.04 L 173.36 110.04 L 173.36 110.04 Q 174.116 110.304 174.752 110.736 L 174.752 110.736 L 174.752 110.736 Q 175.388 111.168 175.82 111.828 L 175.82 111.828 L 175.82 111.828 Q 176.252 112.488 176.252 113.568 L 176.252 113.568 L 176.252 113.568 Q 176.252 114.336 176 115.008 L 176 115.008 L 176 115.008 Q 175.748 115.68 175.22 116.16 L 175.22 116.16 L 175.22 116.16 Q 174.692 116.64 173.912 116.916 L 173.912 116.916 L 173.912 116.916 Q 173.132 117.192 172.076 117.192 L 172.076 117.192 L 172.076 117.192 Q 170.708 117.192 169.748 116.928 L 169.748 116.928 L 169.748 116.928 Q 168.788 116.664 168.14 116.304 L 168.14 116.304 L 168.716 114.672 L 168.716 114.672 Q 169.268 114.984 170.156 115.248 L 170.156 115.248 L 170.156 115.248 Q 171.044 115.512 171.956 115.512 L 171.956 115.512 L 171.956 115.512 Q 172.988 115.512 173.66 115.104 L 173.66 115.104 L 173.66 115.104 Q 174.332 114.696 174.332 113.64 Z  M 195.436 113.64 L 195.436 113.64 L 195.436 113.64 Q 195.436 112.92 195.004 112.512 L 195.004 112.512 L 195.004 112.512 Q 194.572 112.104 193.936 111.828 L 193.936 111.828 L 193.936 111.828 Q 193.3 111.552 192.544 111.3 L 192.544 111.3 L 192.544 111.3 Q 191.788 111.048 191.152 110.652 L 191.152 110.652 L 191.152 110.652 Q 190.516 110.256 190.084 109.632 L 190.084 109.632 L 190.084 109.632 Q 189.652 109.008 189.652 107.952 L 189.652 107.952 L 189.652 107.952 Q 189.652 106.224 190.636 105.42 L 190.636 105.42 L 190.636 105.42 Q 191.62 104.616 193.372 104.616 L 193.372 104.616 L 193.372 104.616 Q 194.668 104.616 195.544 104.844 L 195.544 104.844 L 195.544 104.844 Q 196.42 105.072 197.068 105.384 L 197.068 105.384 L 196.612 106.968 L 196.612 106.968 Q 196.06 106.704 195.28 106.5 L 195.28 106.5 L 195.28 106.5 Q 194.5 106.296 193.612 106.296 L 193.612 106.296 L 193.612 106.296 Q 192.556 106.296 192.064 106.656 L 192.064 106.656 L 192.064 106.656 Q 191.572 107.016 191.572 107.904 L 191.572 107.904 L 191.572 107.904 Q 191.572 108.528 192.004 108.876 L 192.004 108.876 L 192.004 108.876 Q 192.436 109.224 193.072 109.5 L 193.072 109.5 L 193.072 109.5 Q 193.708 109.776 194.464 110.04 L 194.464 110.04 L 194.464 110.04 Q 195.22 110.304 195.856 110.736 L 195.856 110.736 L 195.856 110.736 Q 196.492 111.168 196.924 111.828 L 196.924 111.828 L 196.924 111.828 Q 197.356 112.488 197.356 113.568 L 197.356 113.568 L 197.356 113.568 Q 197.356 114.336 197.104 115.008 L 197.104 115.008 L 197.104 115.008 Q 196.852 115.68 196.324 116.16 L 196.324 116.16 L 196.324 116.16 Q 195.796 116.64 195.016 116.916 L 195.016 116.916 L 195.016 116.916 Q 194.236 117.192 193.18 117.192 L 193.18 117.192 L 193.18 117.192 Q 191.812 117.192 190.852 116.928 L 190.852 116.928 L 190.852 116.928 Q 189.892 116.664 189.244 116.304 L 189.244 116.304 L 189.82 114.672 L 189.82 114.672 Q 190.372 114.984 191.26 115.248 L 191.26 115.248 L 191.26 115.248 Q 192.148 115.512 193.06 115.512 L 193.06 115.512 L 193.06 115.512 Q 194.092 115.512 194.764 115.104 L 194.764 115.104 L 194.764 115.104 Q 195.436 114.696 195.436 113.64 Z " fill-rule="evenodd" fill="rgb(209,209,209)"/><path d=" M 342.04 81.44 L 342.04 26 L 342.04 26 Q 345.4 25.36 349.44 25 L 349.44 25 L 349.44 25 Q 353.48 24.64 357.48 24.64 L 357.48 24.64 L 357.48 24.64 Q 361.64 24.64 365.84 25.32 L 365.84 25.32 L 365.84 25.32 Q 370.04 26 373.4 28.04 L 373.4 28.04 L 373.4 28.04 Q 376.76 30.08 378.88 33.72 L 378.88 33.72 L 378.88 33.72 Q 381 37.36 381 43.2 L 381 43.2 L 381 43.2 Q 381 48.48 379.16 52.12 L 379.16 52.12 L 379.16 52.12 Q 377.32 55.76 374.28 58.08 L 374.28 58.08 L 374.28 58.08 Q 371.24 60.4 367.36 61.44 L 367.36 61.44 L 367.36 61.44 Q 363.48 62.48 359.32 62.48 L 359.32 62.48 L 359.32 62.48 Q 358.92 62.48 358.04 62.48 L 358.04 62.48 L 358.04 62.48 Q 357.16 62.48 356.2 62.44 L 356.2 62.44 L 356.2 62.44 Q 355.24 62.4 354.32 62.32 L 354.32 62.32 L 354.32 62.32 Q 353.4 62.24 353 62.16 L 353 62.16 L 353 81.44 L 342.04 81.44 Z  M 358.36 34.08 L 358.36 34.08 L 358.36 34.08 Q 356.76 34.08 355.32 34.2 L 355.32 34.2 L 355.32 34.2 Q 353.88 34.32 353 34.48 L 353 34.48 L 353 52.64 L 353 52.64 Q 353.32 52.72 353.96 52.8 L 353.96 52.8 L 353.96 52.8 Q 354.6 52.88 355.32 52.92 L 355.32 52.92 L 355.32 52.92 Q 356.04 52.96 356.72 52.96 L 356.72 52.96 L 356.72 52.96 Q 357.4 52.96 357.72 52.96 L 357.72 52.96 L 357.72 52.96 Q 359.88 52.96 362 52.56 L 362 52.56 L 362 52.56 Q 364.12 52.16 365.8 51.08 L 365.8 51.08 L 365.8 51.08 Q 367.48 50 368.48 48.08 L 368.48 48.08 L 368.48 48.08 Q 369.48 46.16 369.48 43.04 L 369.48 43.04 L 369.48 43.04 Q 369.48 40.4 368.52 38.68 L 368.52 38.68 L 368.52 38.68 Q 367.56 36.96 366 35.92 L 366 35.92 L 366 35.92 Q 364.44 34.88 362.44 34.48 L 362.44 34.48 L 362.44 34.48 Q 360.44 34.08 358.36 34.08 Z  M 398.28 25.44 L 398.28 68 L 398.28 68 Q 398.28 70.8 399 72.08 L 399 72.08 L 399 72.08 Q 399.72 73.36 401.32 73.36 L 401.32 73.36 L 401.32 73.36 Q 402.28 73.36 403.2 73.2 L 403.2 73.2 L 403.2 73.2 Q 404.12 73.04 405.48 72.48 L 405.48 72.48 L 406.6 80.64 L 406.6 80.64 Q 405.32 81.28 402.68 81.92 L 402.68 81.92 L 402.68 81.92 Q 400.04 82.56 397.24 82.56 L 397.24 82.56 L 397.24 82.56 Q 392.68 82.56 390.28 80.44 L 390.28 80.44 L 390.28 80.44 Q 387.88 78.32 387.88 73.44 L 387.88 73.44 L 387.88 25.44 L 398.28 25.44 Z  M 410.68 41.44 L 421.08 41.44 L 421.08 64.16 L 421.08 64.16 Q 421.08 69.04 422.24 71.2 L 422.24 71.2 L 422.24 71.2 Q 423.4 73.36 426.76 73.36 L 426.76 73.36 L 426.76 73.36 Q 429.72 73.36 431.68 71.6 L 431.68 71.6 L 431.68 71.6 Q 433.64 69.84 434.6 67.28 L 434.6 67.28 L 434.6 41.44 L 445 41.44 L 445 69.28 L 445 69.28 Q 445 72.56 445.32 75.72 L 445.32 75.72 L 445.32 75.72 Q 445.64 78.88 446.28 81.44 L 446.28 81.44 L 438.44 81.44 L 436.6 75.52 L 436.28 75.52 L 436.28 75.52 Q 434.44 78.56 431.16 80.56 L 431.16 80.56 L 431.16 80.56 Q 427.88 82.56 423.4 82.56 L 423.4 82.56 L 423.4 82.56 Q 420.36 82.56 417.96 81.76 L 417.96 81.76 L 417.96 81.76 Q 415.56 80.96 413.96 79.12 L 413.96 79.12 L 413.96 79.12 Q 412.36 77.28 411.52 74.16 L 411.52 74.16 L 411.52 74.16 Q 410.68 71.04 410.68 66.32 L 410.68 66.32 L 410.68 41.44 Z  M 487.96 42.88 L 487.96 81.44 L 487.96 81.44 Q 487.96 90.16 483.24 94.28 L 483.24 94.28 L 483.24 94.28 Q 478.52 98.4 470.04 98.4 L 470.04 98.4 L 470.04 98.4 Q 464.28 98.4 460.96 97.6 L 460.96 97.6 L 460.96 97.6 Q 457.64 96.8 455.96 95.92 L 455.96 95.92 L 458.12 87.68 L 458.12 87.68 Q 459.96 88.4 462.4 89.12 L 462.4 89.12 L 462.4 89.12 Q 464.84 89.84 468.44 89.84 L 468.44 89.84 L 468.44 89.84 Q 473.88 89.84 475.84 87.48 L 475.84 87.48 L 475.84 87.48 Q 477.8 85.12 477.8 80.88 L 477.8 80.88 L 477.8 78.32 L 477.48 78.32 L 477.48 78.32 Q 474.68 82.08 467.56 82.08 L 467.56 82.08 L 467.56 82.08 Q 459.8 82.08 456 77.28 L 456 77.28 L 456 77.28 Q 452.2 72.48 452.2 62.24 L 452.2 62.24 L 452.2 62.24 Q 452.2 51.52 457.32 46 L 457.32 46 L 457.32 46 Q 462.44 40.48 472.2 40.48 L 472.2 40.48 L 472.2 40.48 Q 477.32 40.48 481.36 41.2 L 481.36 41.2 L 481.36 41.2 Q 485.4 41.92 487.96 42.88 L 487.96 42.88 Z  M 470.36 73.76 L 470.36 73.76 L 470.36 73.76 Q 473.4 73.76 475.04 72.4 L 475.04 72.4 L 475.04 72.4 Q 476.68 71.04 477.56 68.32 L 477.56 68.32 L 477.56 50.32 L 477.56 50.32 Q 475.08 49.28 471.4 49.28 L 471.4 49.28 L 471.4 49.28 Q 467.4 49.28 465.16 52.28 L 465.16 52.28 L 465.16 52.28 Q 462.92 55.28 462.92 61.84 L 462.92 61.84 L 462.92 61.84 Q 462.92 67.68 464.84 70.72 L 464.84 70.72 L 464.84 70.72 Q 466.76 73.76 470.36 73.76 Z  M 497.88 81.44 L 497.88 41.44 L 508.28 41.44 L 508.28 81.44 L 497.88 81.44 Z  M 496.36 30.16 L 496.36 30.16 L 496.36 30.16 Q 496.36 27.84 498.08 26.2 L 498.08 26.2 L 498.08 26.2 Q 499.8 24.56 502.84 24.56 L 502.84 24.56 L 502.84 24.56 Q 505.88 24.56 507.76 26.2 L 507.76 26.2 L 507.76 26.2 Q 509.64 27.84 509.64 30.16 L 509.64 30.16 L 509.64 30.16 Q 509.64 32.48 507.76 34.04 L 507.76 34.04 L 507.76 34.04 Q 505.88 35.6 502.84 35.6 L 502.84 35.6 L 502.84 35.6 Q 499.8 35.6 498.08 34.04 L 498.08 34.04 L 498.08 34.04 Q 496.36 32.48 496.36 30.16 Z  M 553.4 81.44 L 543 81.44 L 543 58.72 L 543 58.72 Q 543 53.84 541.6 51.68 L 541.6 51.68 L 541.6 51.68 Q 540.2 49.52 536.84 49.52 L 536.84 49.52 L 536.84 49.52 Q 533.88 49.52 531.84 51.24 L 531.84 51.24 L 531.84 51.24 Q 529.8 52.96 528.92 55.52 L 528.92 55.52 L 528.92 81.44 L 518.52 81.44 L 518.52 41.44 L 526.76 41.44 L 527.96 46.72 L 528.28 46.72 L 528.28 46.72 Q 530.12 44.16 533.16 42.24 L 533.16 42.24 L 533.16 42.24 Q 536.2 40.32 541 40.32 L 541 40.32 L 541 40.32 Q 543.96 40.32 546.28 41.12 L 546.28 41.12 L 546.28 41.12 Q 548.6 41.92 550.2 43.76 L 550.2 43.76 L 550.2 43.76 Q 551.8 45.6 552.6 48.76 L 552.6 48.76 L 552.6 48.76 Q 553.4 51.92 553.4 56.56 L 553.4 56.56 L 553.4 81.44 Z " fill-rule="evenodd" fill="rgb(255,255,255)"/><path d=" M 139.56 81.44 L 135.08 69.04 L 117.88 69.04 L 113.64 81.44 L 102.68 81.44 L 122.84 25.04 L 130.92 25.04 L 151.08 81.44 L 139.56 81.44 L 139.56 81.44 Z  M 124.76 47.84 L 120.68 60.24 L 132.68 60.24 L 128.52 47.76 L 126.84 38.96 L 126.44 38.96 L 124.76 47.84 L 124.76 47.84 Z  M 179.08 41.44 L 177.72 51.2 L 177.72 51.2 Q 175.24 50.32 173.24 50.32 L 173.24 50.32 L 173.24 50.32 Q 170.44 50.32 168.56 51.8 L 168.56 51.8 L 168.56 51.8 Q 166.68 53.28 166.04 55.6 L 166.04 55.6 L 166.04 81.44 L 155.64 81.44 L 155.64 41.44 L 163.72 41.44 L 164.92 46.72 L 165.24 46.72 L 165.24 46.72 Q 166.6 43.76 168.92 42.16 L 168.92 42.16 L 168.92 42.16 Q 171.24 40.56 174.36 40.56 L 174.36 40.56 L 174.36 40.56 Q 176.44 40.56 179.08 41.44 L 179.08 41.44 L 179.08 41.44 Z  M 209.64 71.04 L 212.04 78.96 L 212.04 78.96 Q 209.64 80.72 206.24 81.64 L 206.24 81.64 L 206.24 81.64 Q 202.84 82.56 199.24 82.56 L 199.24 82.56 L 199.24 82.56 Q 194.44 82.56 191.12 81.04 L 191.12 81.04 L 191.12 81.04 Q 187.8 79.52 185.72 76.76 L 185.72 76.76 L 185.72 76.76 Q 183.64 74 182.72 70.08 L 182.72 70.08 L 182.72 70.08 Q 181.8 66.16 181.8 61.44 L 181.8 61.44 L 181.8 61.44 Q 181.8 51.28 186.36 45.8 L 186.36 45.8 L 186.36 45.8 Q 190.92 40.32 199.64 40.32 L 199.64 40.32 L 199.64 40.32 Q 204.04 40.32 206.72 41.04 L 206.72 41.04 L 206.72 41.04 Q 209.4 41.76 211.56 42.88 L 211.56 42.88 L 209.08 51.36 L 209.08 51.36 Q 207.24 50.48 205.44 50 L 205.44 50 L 205.44 50 Q 203.64 49.52 201.32 49.52 L 201.32 49.52 L 201.32 49.52 Q 197 49.52 194.76 52.36 L 194.76 52.36 L 194.76 52.36 Q 192.52 55.2 192.52 61.44 L 192.52 61.44 L 192.52 61.44 Q 192.52 64 193.08 66.16 L 193.08 66.16 L 193.08 66.16 Q 193.64 68.32 194.76 69.92 L 194.76 69.92 L 194.76 69.92 Q 195.88 71.52 197.68 72.44 L 197.68 72.44 L 197.68 72.44 Q 199.48 73.36 201.88 73.36 L 201.88 73.36 L 201.88 73.36 Q 204.52 73.36 206.36 72.68 L 206.36 72.68 L 206.36 72.68 Q 208.2 72 209.64 71.04 L 209.64 71.04 L 209.64 71.04 Z  M 220.6 51.52 L 218.12 43.76 L 218.12 43.76 Q 221.32 42.32 225.72 41.48 L 225.72 41.48 L 225.72 41.48 Q 230.12 40.64 234.92 40.64 L 234.92 40.64 L 234.92 40.64 Q 239.08 40.64 241.88 41.64 L 241.88 41.64 L 241.88 41.64 Q 244.68 42.64 246.32 44.48 L 246.32 44.48 L 246.32 44.48 Q 247.96 46.32 248.64 48.88 L 248.64 48.88 L 248.64 48.88 Q 249.32 51.44 249.32 54.64 L 249.32 54.64 L 249.32 54.64 Q 249.32 58.16 249.08 61.72 L 249.08 61.72 L 249.08 61.72 Q 248.84 65.28 248.8 68.72 L 248.8 68.72 L 248.8 68.72 Q 248.76 72.16 249 75.4 L 249 75.4 L 249 75.4 Q 249.24 78.64 250.2 81.52 L 250.2 81.52 L 241.72 81.52 L 240.04 76 L 239.64 76 L 239.64 76 Q 238.04 78.48 235.2 80.28 L 235.2 80.28 L 235.2 80.28 Q 232.36 82.08 227.88 82.08 L 227.88 82.08 L 227.88 82.08 Q 225.08 82.08 222.84 81.24 L 222.84 81.24 L 222.84 81.24 Q 220.6 80.4 219 78.84 L 219 78.84 L 219 78.84 Q 217.4 77.28 216.52 75.16 L 216.52 75.16 L 216.52 75.16 Q 215.64 73.04 215.64 70.4 L 215.64 70.4 L 215.64 70.4 Q 215.64 66.72 217.28 64.2 L 217.28 64.2 L 217.28 64.2 Q 218.92 61.68 222 60.12 L 222 60.12 L 222 60.12 Q 225.08 58.56 229.36 57.96 L 229.36 57.96 L 229.36 57.96 Q 233.64 57.36 238.92 57.6 L 238.92 57.6 L 238.92 57.6 Q 239.48 53.12 238.28 51.16 L 238.28 51.16 L 238.28 51.16 Q 237.08 49.2 232.92 49.2 L 232.92 49.2 L 232.92 49.2 Q 229.8 49.2 226.32 49.84 L 226.32 49.84 L 226.32 49.84 Q 222.84 50.48 220.6 51.52 L 220.6 51.52 L 220.6 51.52 Z  M 231.32 73.52 L 231.32 73.52 L 231.32 73.52 Q 234.44 73.52 236.28 72.12 L 236.28 72.12 L 236.28 72.12 Q 238.12 70.72 239 69.12 L 239 69.12 L 239 63.92 L 239 63.92 Q 236.52 63.68 234.24 63.84 L 234.24 63.84 L 234.24 63.84 Q 231.96 64 230.2 64.56 L 230.2 64.56 L 230.2 64.56 Q 228.44 65.12 227.4 66.16 L 227.4 66.16 L 227.4 66.16 Q 226.36 67.2 226.36 68.8 L 226.36 68.8 L 226.36 68.8 Q 226.36 71.04 227.68 72.28 L 227.68 72.28 L 227.68 72.28 Q 229 73.52 231.32 73.52 Z  M 292.04 25.44 L 292.04 67.36 L 292.04 67.36 Q 292.04 70.72 292.12 74.08 L 292.12 74.08 L 292.12 74.08 Q 292.2 77.44 292.84 81.52 L 292.84 81.52 L 285.4 81.52 L 283.96 76.32 L 283.64 76.32 L 283.64 76.32 Q 282.04 79.12 279.04 80.84 L 279.04 80.84 L 279.04 80.84 Q 276.04 82.56 271.96 82.56 L 271.96 82.56 L 271.96 82.56 Q 264.44 82.56 260.28 77.6 L 260.28 77.6 L 260.28 77.6 Q 256.12 72.64 256.12 62.08 L 256.12 62.08 L 256.12 62.08 Q 256.12 51.84 260.76 46.16 L 260.76 46.16 L 260.76 46.16 Q 265.4 40.48 274.36 40.48 L 274.36 40.48 L 274.36 40.48 Q 276.84 40.48 278.44 40.76 L 278.44 40.76 L 278.44 40.76 Q 280.04 41.04 281.64 41.68 L 281.64 41.68 L 281.64 25.44 L 292.04 25.44 L 292.04 25.44 Z  M 274.36 73.76 L 274.36 73.76 L 274.36 73.76 Q 277.4 73.76 279.16 72.28 L 279.16 72.28 L 279.16 72.28 Q 280.92 70.8 281.64 68 L 281.64 68 L 281.64 51.04 L 281.64 51.04 Q 280.52 50.16 279.16 49.72 L 279.16 49.72 L 279.16 49.72 Q 277.8 49.28 275.64 49.28 L 275.64 49.28 L 275.64 49.28 Q 271.24 49.28 269.04 52.24 L 269.04 52.24 L 269.04 52.24 Q 266.84 55.2 266.84 62.4 L 266.84 62.4 L 266.84 62.4 Q 266.84 67.52 268.64 70.64 L 268.64 70.64 L 268.64 70.64 Q 270.44 73.76 274.36 73.76 Z  M 329.72 71.2 L 333.16 78 L 333.16 78 Q 330.76 79.92 326.64 81.24 L 326.64 81.24 L 326.64 81.24 Q 322.52 82.56 317.88 82.56 L 317.88 82.56 L 317.88 82.56 Q 308.2 82.56 303.72 76.92 L 303.72 76.92 L 303.72 76.92 Q 299.24 71.28 299.24 61.44 L 299.24 61.44 L 299.24 61.44 Q 299.24 50.88 304.28 45.6 L 304.28 45.6 L 304.28 45.6 Q 309.32 40.32 318.44 40.32 L 318.44 40.32 L 318.44 40.32 Q 321.48 40.32 324.36 41.12 L 324.36 41.12 L 324.36 41.12 Q 327.24 41.92 329.48 43.76 L 329.48 43.76 L 329.48 43.76 Q 331.72 45.6 333.08 48.72 L 333.08 48.72 L 333.08 48.72 Q 334.44 51.84 334.44 56.48 L 334.44 56.48 L 334.44 56.48 Q 334.44 58.16 334.24 60.08 L 334.24 60.08 L 334.24 60.08 Q 334.04 62 333.64 64.08 L 333.64 64.08 L 309.64 64.08 L 309.64 64.08 Q 309.88 69.12 312.24 71.68 L 312.24 71.68 L 312.24 71.68 Q 314.6 74.24 319.88 74.24 L 319.88 74.24 L 319.88 74.24 Q 323.16 74.24 325.76 73.24 L 325.76 73.24 L 325.76 73.24 Q 328.36 72.24 329.72 71.2 L 329.72 71.2 L 329.72 71.2 Z  M 318.28 48.64 L 318.28 48.64 L 318.28 48.64 Q 314.2 48.64 312.24 51.08 L 312.24 51.08 L 312.24 51.08 Q 310.28 53.52 309.88 57.6 L 309.88 57.6 L 324.76 57.6 L 324.76 57.6 Q 325.08 53.28 323.44 50.96 L 323.44 50.96 L 323.44 50.96 Q 321.8 48.64 318.28 48.64 Z " fill-rule="evenodd" fill="rgb(44,174,255)"/><path d=" M 48.68 81.44 L 48.68 52.4 L 49.88 41.28 L 49.4 41.28 L 45.96 50.24 L 34.04 71.12 L 30.52 71.12 L 17.96 50.16 L 14.44 41.28 L 14.04 41.28 L 15.64 52.32 L 15.64 81.44 L 5.24 81.44 L 5.24 25.44 L 15.24 25.44 L 30.2 51.04 L 32.84 57.44 L 33.16 57.44 L 35.56 50.88 L 49.72 25.44 L 59.64 25.44 L 59.64 81.44 L 48.68 81.44 L 48.68 81.44 Z  M 76.2 41.44 L 83.56 63.92 L 85 70.16 L 85.48 70.16 L 86.52 63.84 L 92.6 41.44 L 103.32 41.44 L 91.16 77.52 L 91.16 77.52 Q 89.64 82 88.24 85.72 L 88.24 85.72 L 88.24 85.72 Q 86.84 89.44 85.16 92.16 L 85.16 92.16 L 85.16 92.16 Q 83.48 94.88 81.44 96.36 L 81.44 96.36 L 81.44 96.36 Q 79.4 97.84 76.6 97.84 L 76.6 97.84 L 76.6 97.84 Q 72.44 97.84 69.96 96.48 L 69.96 96.48 L 71.88 88.16 L 71.88 88.16 Q 73.08 88.64 74.28 88.64 L 74.28 88.64 L 74.28 88.64 Q 76.12 88.64 77.84 87.08 L 77.84 87.08 L 77.84 87.08 Q 79.56 85.52 80.44 81.44 L 80.44 81.44 L 63.72 41.44 L 76.2 41.44 L 76.2 41.44 Z " fill-rule="evenodd" fill="rgb(255,255,255)"/></g></svg>