<?xml version="1.0" encoding="UTF-8"?>
<svg version="1.1" xmlns="http://www.w3.org/2000/svg" width="500" height="500">
<path d="M0 0 C1.77686128 -0.00542922 3.55371805 -0.01255634 5.33056641 -0.02124023 C10.12813485 -0.03938146 14.92535688 -0.03244428 19.72293091 -0.01972389 C24.75995775 -0.00954832 29.79695628 -0.01900217 34.83398438 -0.02526855 C43.29041837 -0.03253174 51.74671231 -0.02299221 60.203125 -0.00390625 C69.95928929 0.0178599 79.71511913 0.01080759 89.47127533 -0.01121187 C97.86993 -0.02940382 106.26848439 -0.03190567 114.6671524 -0.0214572 C119.67358374 -0.0152431 124.67985823 -0.01432902 129.6862793 -0.02760315 C134.39458762 -0.0392164 139.1024676 -0.03103655 143.81072998 -0.00802612 C145.53154797 -0.00276815 147.25240243 -0.0042025 148.97320557 -0.01307678 C161.39968453 -0.07121897 173.28908055 1.1527563 183.21875 9.51757812 C183.21875 10.17757812 183.21875 10.83757812 183.21875 11.51757812 C185.19875 12.50757813 185.19875 12.50757813 187.21875 13.51757812 C187.21875 14.17757812 187.21875 14.83757812 187.21875 15.51757812 C187.87875 15.51757812 188.53875 15.51757812 189.21875 15.51757812 C190.40234375 16.91601563 190.40234375 16.91601563 191.65625 18.89257812 C192.06746094 19.5190625 192.47867188 20.14554688 192.90234375 20.79101562 C197.90144478 31.14523675 197.65313085 41.22237266 197.62280273 52.47045898 C197.62851209 54.38510027 197.63547853 56.29973816 197.64360046 58.21437073 C197.6614839 63.3920874 197.66037262 68.56963415 197.65465808 73.74737239 C197.65155943 78.07877677 197.65766616 82.41014883 197.66369683 86.7415486 C197.67772447 96.96371295 197.67619525 107.18579369 197.66479492 117.40795898 C197.65331373 127.93491086 197.6673935 138.46160797 197.6941914 148.98852628 C197.71637909 158.04531865 197.7229789 167.10203122 197.71711498 176.15884882 C197.71375177 181.5598944 197.71611831 186.96077666 197.73336601 192.36179924 C197.74888214 197.44187796 197.74482785 202.52158041 197.72606087 207.60164452 C197.72238799 209.45953553 197.72544526 211.31745471 197.73594666 213.17531967 C197.82023329 229.32745532 195.15401582 241.0138767 183.6484375 253.17773438 C175.74377385 260.2400978 165.85807657 262.76199632 155.48377991 262.77827454 C154.74825518 262.78210008 154.01273044 262.78592563 153.25491709 262.7898671 C150.8131806 262.80010921 148.37168313 262.79622187 145.92993164 262.79223633 C144.16997563 262.79658765 142.41002152 262.8017722 140.65007019 262.807724 C135.8856073 262.82107927 131.12122391 262.8216966 126.35674596 262.8191607 C122.37320523 262.81808874 118.38968043 262.82298004 114.40614313 262.82776612 C105.00585731 262.83884905 95.60561145 262.83930538 86.20532227 262.83325195 C76.52024295 262.82721089 66.83530886 262.83952935 57.15025431 262.86082202 C48.82219871 262.87845546 40.49418927 262.88443667 32.1661157 262.88118428 C27.19772511 262.87937425 22.22943815 262.8819798 17.26106453 262.89589882 C12.58817721 262.90850109 7.91551588 262.90651038 3.24263191 262.89348793 C1.53225629 262.89112792 -0.17813535 262.89383613 -1.88849258 262.90211105 C-12.43164088 262.94942435 -21.20070311 262.4547407 -30.59375 257.01757812 C-31.30144531 256.61539062 -32.00914062 256.21320313 -32.73828125 255.79882812 C-34.86185042 254.46702949 -36.86527256 253.13647142 -38.78125 251.51757812 C-38.78125 250.85757813 -38.78125 250.19757813 -38.78125 249.51757812 C-39.44125 249.51757812 -40.10125 249.51757812 -40.78125 249.51757812 C-47.9648026 240.69321407 -50.9312448 231.87049587 -50.92842102 220.58737183 C-50.93209771 219.79456822 -50.9357744 219.00176461 -50.9395625 218.18493664 C-50.95056564 215.53132485 -50.95443745 212.87775225 -50.95825195 210.22412109 C-50.96451917 208.32007219 -50.97116621 206.41602451 -50.97816467 204.51197815 C-50.99917761 198.26124926 -51.00956484 192.0105202 -51.01953125 185.75976562 C-51.02357991 183.60518506 -51.02769687 181.45060463 -51.03188133 179.29602432 C-51.05092733 169.1720611 -51.06515932 159.04810515 -51.0734933 148.92412746 C-51.08326227 137.25073735 -51.10957548 125.57753704 -51.14999419 113.90421379 C-51.18018789 104.8730163 -51.19496529 95.84187312 -51.19827431 86.81062615 C-51.20062116 81.42066083 -51.20953414 76.03089842 -51.23473549 70.6409874 C-51.25807796 65.56675208 -51.26222459 60.49285237 -51.25197411 55.41857719 C-51.25148013 53.56229089 -51.25775954 51.70598772 -51.27153015 49.84975243 C-51.3592294 37.32124016 -50.55940526 26.88845181 -42.78125 16.51757812 C-42.12125 15.52757812 -41.46125 14.53757813 -40.78125 13.51757812 C-40.12125 13.51757812 -39.46125 13.51757812 -38.78125 13.51757812 C-38.78125 12.85757813 -38.78125 12.19757813 -38.78125 11.51757812 C-36.98046875 9.93164062 -36.98046875 9.93164062 -34.46875 8.14257812 C-33.66824219 7.55734375 -32.86773437 6.97210938 -32.04296875 6.36914062 C-21.55467956 0.4153094 -11.75413863 -0.06061678 0 0 Z " fill="#060604" transform="translate(176.78125,118.482421875)"/>
<path d="M0 0 C24.75 0 49.5 0 75 0 C75 6.93 75 13.86 75 21 C57.84 21 40.68 21 23 21 C23 27.6 23 34.2 23 41 C37.19 41 51.38 41 66 41 C66 48.26 66 55.52 66 63 C51.81 63 37.62 63 23 63 C23 69.6 23 76.2 23 83 C40.16 83 57.32 83 75 83 C75 89.93 75 96.86 75 104 C50.25 104 25.5 104 0 104 C0 69.68 0 35.36 0 0 Z " fill="#F9F9F9" transform="translate(171,194)"/>
<path d="M0 0 C24.75 0 49.5 0 75 0 C75 20 75 20 71.3125 25.5625 C70.02636455 26.84863545 68.73975796 28.13432599 67.44628906 29.41308594 C64.4564648 32.6936156 62.13317693 36.495486 59.6875 40.1875 C55.17099934 46.90191228 50.52608398 53.46977644 45.57299805 59.86987305 C40.06368293 67.05492554 35.15810231 74.49730574 30 82 C45.18 82.33 60.36 82.66 76 83 C76 89.93 76 96.86 76 104 C50.92 104 25.84 104 0 104 C0 80.56289964 0 80.56289964 7.55810547 72.61279297 C10.40906709 69.4239253 12.78457043 65.86411558 15.25 62.375 C16.36451468 60.82453459 17.48041671 59.27506557 18.59765625 57.7265625 C19.15855957 56.94700195 19.71946289 56.16744141 20.29736328 55.36425781 C21.98592957 53.019538 23.67783481 50.67727027 25.37109375 48.3359375 C25.92700195 47.56717285 26.48291016 46.7984082 27.05566406 46.00634766 C28.08997817 44.57619641 29.12446252 43.14616825 30.15917969 41.71630859 C35.1351468 34.8311882 40.06206783 27.91310503 45 21 C30.15 21 15.3 21 0 21 C0 14.07 0 7.14 0 0 Z " fill="#FBFBFA" transform="translate(254,194)"/>
<path d="M0 0 C0.66 0.33 1.32 0.66 2 1 C0.46920333 4.44429252 -1.61654706 7.09516673 -4 10 C-4.99 11.485 -4.99 11.485 -6 13 C-6.66 13 -7.32 13 -8 13 C-6.74809374 8.51400257 -5.20614467 5.40652872 -2 2 C-1.34 2 -0.68 2 0 2 C0 1.34 0 0.68 0 0 Z " fill="#4C4B4C" transform="translate(138,130)"/>
</svg>
